<svg width="100" height="100" viewBox="0 0 100 100" fill="none" xmlns="http://www.w3.org/2000/svg">
<rect width="100" height="100" fill="#E5E5E5"/>
<rect width="100" height="100" fill="white"/>
<circle cx="50" cy="50" r="50" fill="#1DB954"/>
<path d="M86.6403 68.1596C82.5613 76.1651 75.9058 82.5642 67.7464 86.3257C59.5869 90.0873 50.3987 90.9922 41.6622 88.8948C32.9257 86.7973 25.1497 81.8196 19.5873 74.7638C14.0249 67.7079 11 58.9848 11 50C11 41.0152 14.0249 32.2921 19.5873 25.2362C25.1497 18.1804 32.9257 13.2027 41.6622 11.1052C50.3987 9.00775 59.5869 9.91272 67.7464 13.6743C75.9058 17.4358 82.5613 23.8349 86.6403 31.8404L71.8105 39.3965C69.4288 34.7221 65.5426 30.9856 60.7783 28.7892C56.014 26.5928 50.6489 26.0644 45.5476 27.2891C40.4463 28.5138 35.9059 31.4203 32.658 35.5403C29.4101 39.6603 27.6438 44.7538 27.6438 50C27.6438 55.2462 29.4101 60.3397 32.658 64.4597C35.9059 68.5797 40.4463 71.4862 45.5476 72.7109C50.6489 73.9356 56.014 73.4072 60.7783 71.2108C65.5426 69.0144 69.4288 65.2779 71.8105 60.6035L86.6403 68.1596Z" fill="black"/>
</svg>
